<?xml version="1.0" encoding="UTF-8" standalone="no"?>
<!-- Created with Inkscape (http://www.inkscape.org/) -->

<svg
   width="33.303432mm"
   height="195.8286mm"
   viewBox="0 0 33.303432 195.8286"
   version="1.1"
   id="svg5"
   xml:space="preserve"
   inkscape:version="1.2.2 (b0a8486541, 2022-12-01)"
   sodipodi:docname="flowchart_vert.svg"
   xmlns:inkscape="http://www.inkscape.org/namespaces/inkscape"
   xmlns:sodipodi="http://sodipodi.sourceforge.net/DTD/sodipodi-0.dtd"
   xmlns="http://www.w3.org/2000/svg"
   xmlns:svg="http://www.w3.org/2000/svg"><sodipodi:namedview
     id="namedview7"
     pagecolor="#ffffff"
     bordercolor="#666666"
     borderopacity="1.0"
     inkscape:showpageshadow="2"
     inkscape:pageopacity="0.0"
     inkscape:pagecheckerboard="0"
     inkscape:deskcolor="#d1d1d1"
     inkscape:document-units="mm"
     showgrid="false"
     inkscape:zoom="0.35624182"
     inkscape:cx="485.62519"
     inkscape:cy="967.03976"
     inkscape:window-width="1854"
     inkscape:window-height="1011"
     inkscape:window-x="66"
     inkscape:window-y="32"
     inkscape:window-maximized="1"
     inkscape:current-layer="g1289"><inkscape:grid
       type="xygrid"
       id="grid439"
       originx="243.09027"
       originy="57.658358" /></sodipodi:namedview><defs
     id="defs2"><marker
       style="overflow:visible"
       id="Arrow3_F-000000_S-7c6f42-3"
       refX="0"
       refY="0"
       orient="auto-start-reverse"
       inkscape:stockid="Arrow3"
       markerWidth="4.2071066"
       markerHeight="7"
       viewBox="0 0 4.2071068 7"
       inkscape:isstock="true"
       inkscape:collect="always"
       preserveAspectRatio="xMidYMid"><path
         style="fill:none;stroke:#7c6f42;stroke-width:1;stroke-linecap:round"
         d="M 3,-3 0,0 3,3"
         id="path10143-6"
         transform="rotate(180,0.125,0)"
         sodipodi:nodetypes="ccc" /></marker><marker
       style="overflow:visible"
       id="Arrow3_F-000000_S-7c6f42-3-5"
       refX="0"
       refY="0"
       orient="auto-start-reverse"
       inkscape:stockid="Arrow3"
       markerWidth="4.2071066"
       markerHeight="7"
       viewBox="0 0 4.2071068 7"
       inkscape:isstock="true"
       inkscape:collect="always"
       preserveAspectRatio="xMidYMid"><path
         style="fill:none;stroke:#7c6f42;stroke-width:1;stroke-linecap:round"
         d="M 3,-3 0,0 3,3"
         id="path10143-6-3"
         transform="rotate(180,0.125,0)"
         sodipodi:nodetypes="ccc" /></marker><marker
       style="overflow:visible"
       id="Arrow3_F-000000_S-7c6f42-3-6"
       refX="0"
       refY="0"
       orient="auto-start-reverse"
       inkscape:stockid="Arrow3"
       markerWidth="4.2071066"
       markerHeight="7"
       viewBox="0 0 4.2071068 7"
       inkscape:isstock="true"
       inkscape:collect="always"
       preserveAspectRatio="xMidYMid"><path
         style="fill:none;stroke:#7c6f42;stroke-width:1;stroke-linecap:round"
         d="M 3,-3 0,0 3,3"
         id="path10143-6-2"
         transform="rotate(180,0.125,0)"
         sodipodi:nodetypes="ccc" /></marker><marker
       style="overflow:visible"
       id="Arrow3_F-000000_S-7c6f42-3-1"
       refX="0"
       refY="0"
       orient="auto-start-reverse"
       inkscape:stockid="Arrow3"
       markerWidth="4.2071066"
       markerHeight="7"
       viewBox="0 0 4.2071068 7"
       inkscape:isstock="true"
       inkscape:collect="always"
       preserveAspectRatio="xMidYMid"><path
         style="fill:none;stroke:#7c6f42;stroke-width:1;stroke-linecap:round"
         d="M 3,-3 0,0 3,3"
         id="path10143-6-27"
         transform="rotate(180,0.125,0)"
         sodipodi:nodetypes="ccc" /></marker></defs><g
     inkscape:label="Layer 1"
     inkscape:groupmode="layer"
     id="layer1"
     transform="translate(243.09026,57.658358)"><g
       id="g1079"><g
         id="g1289"><g
           id="g1017"
           transform="matrix(0.5,0,0,0.5,-121.54513,-28.829179)"><g
             id="g8585"
             transform="translate(-168.74529,166.90874)"><rect
               style="fill:#ebe5e0;fill-opacity:1;fill-rule:evenodd;stroke:none;stroke-width:1.5;stroke-linecap:round;stroke-linejoin:round;paint-order:stroke markers fill;stop-color:#000000"
               id="rect8004-7-8"
               width="66.606857"
               height="59.214828"
               x="-74.344963"
               y="-58.345917"
               ry="5" /><g
               id="g8154"><text
                 xml:space="preserve"
                 style="font-style:normal;font-variant:normal;font-weight:normal;font-stretch:normal;font-size:12.7px;line-height:1.25;font-family:sans-serif;-inkscape-font-specification:'sans-serif, Normal';font-variant-ligatures:normal;font-variant-caps:normal;font-variant-numeric:normal;font-variant-east-asian:normal;word-spacing:0px;fill:#201010;fill-opacity:1;stroke-width:0.264583"
                 x="-64.688904"
                 y="-4.6873388"
                 id="text125"><tspan
                   sodipodi:role="line"
                   id="tspan123"
                   style="font-style:normal;font-variant:normal;font-weight:normal;font-stretch:normal;font-size:12.7px;font-family:sans-serif;-inkscape-font-specification:'sans-serif, Normal';font-variant-ligatures:normal;font-variant-caps:normal;font-variant-numeric:normal;font-variant-east-asian:normal;fill:#201010;fill-opacity:1;stroke-width:0.264583"
                   x="-64.688904"
                   y="-4.6873388">Preview</tspan></text><path
                 d="m -41.041532,-49.514878 c -4.620762,0 -8.419422,2.097768 -11.3322,4.79793 -2.728518,2.537166 -4.61367,5.549166 -5.57751,7.675284 0.96384,2.126112 2.848992,5.138112 5.57751,7.675278 2.912778,2.700167 6.711438,4.797933 11.3322,4.797933 4.620762,0 8.419422,-2.097766 11.3322,-4.797933 2.728513,-2.537166 4.613671,-5.549166 5.577511,-7.675278 -0.96384,-2.126118 -2.848998,-5.138118 -5.577511,-7.675284 -2.912778,-2.700162 -6.711438,-4.79793 -11.3322,-4.79793 z m -13.649664,2.310378 c 3.337998,-3.10413 7.923324,-5.712168 13.649664,-5.712168 5.72634,0 10.311666,2.608038 13.649665,5.712162 3.316746,3.082872 5.534988,6.761052 6.590964,9.291132 0.233868,0.559878 0.233868,1.183542 0,1.74342 -1.055976,2.530074 -3.274218,6.21534 -6.590964,9.291124 -3.337999,3.097042 -7.923325,5.712163 -13.649665,5.712163 -5.72634,0 -10.311666,-2.608031 -13.649664,-5.712163 -3.316746,-3.08287 -5.534994,-6.76105 -6.590964,-9.291124 -0.233874,-0.559878 -0.233874,-1.183542 0,-1.74342 1.05597,-2.53008 3.274218,-6.215346 6.590964,-9.291126 z m 13.649664,15.832476 c 3.13248,0 5.669643,-2.53716 5.669643,-5.66964 0,-2.097768 -1.141017,-3.933318 -2.834823,-4.91133 -0.09922,4.230972 -3.515178,7.646934 -7.74615,7.74615 0.978012,1.693806 2.813562,2.83482 4.91133,2.83482 z m -5.641296,-6.264954 c 0.177174,0.02124 0.354354,0.02832 0.53862,0.02832 2.50173,0 4.535712,-2.033982 4.535712,-4.535712 0,-0.18426 -0.01416,-0.36144 -0.02832,-0.538614 -2.65056,0.27639 -4.7625,2.388336 -5.038896,5.038896 z m 3.231696,-8.150112 c 0.765402,-0.212616 1.573326,-0.318918 2.402514,-0.318918 0.623658,0 1.240236,0.06379 1.828458,0.18426 0.02124,0.0071 0.03546,0.0071 0.0567,0.01416 4.103409,0.864618 7.186275,4.514454 7.186275,8.872992 0,5.010546 -4.060878,9.071425 -9.071427,9.071425 -4.36563,0 -8.008374,-3.082867 -8.872992,-7.186273 -0.127572,-0.609486 -0.198438,-1.24023 -0.198438,-1.885152 0,-0.779574 0.09922,-1.544976 0.283482,-2.267856 0.01416,-0.04962 0.02124,-0.09214 0.03546,-0.134658 0.84336,-3.075786 3.267132,-5.499552 6.342912,-6.342912 z"
                 id="path291"
                 style="fill:#794729;fill-opacity:1;stroke-width:0.0708702" /></g></g><g
             id="g8578"
             transform="translate(-274.08036,250.01933)"><rect
               style="fill:#ebe5e0;fill-opacity:1;fill-rule:evenodd;stroke:none;stroke-width:1.5;stroke-linecap:round;stroke-linejoin:round;paint-order:stroke markers fill;stop-color:#000000"
               id="rect8004-7-0"
               width="66.606857"
               height="59.214828"
               x="30.990108"
               y="-58.345917"
               ry="5" /><g
               id="g8149"><text
                 xml:space="preserve"
                 style="font-style:normal;font-variant:normal;font-weight:normal;font-stretch:normal;font-size:12.7px;line-height:1.25;font-family:sans-serif;-inkscape-font-specification:'sans-serif, Normal';font-variant-ligatures:normal;font-variant-caps:normal;font-variant-numeric:normal;font-variant-east-asian:normal;word-spacing:0px;fill:#201010;fill-opacity:1;stroke-width:0.264583"
                 x="48.704308"
                 y="-4.6873388"
                 id="text121"><tspan
                   sodipodi:role="line"
                   id="tspan119"
                   style="font-style:normal;font-variant:normal;font-weight:normal;font-stretch:normal;font-size:12.7px;font-family:sans-serif;-inkscape-font-specification:'sans-serif, Normal';font-variant-ligatures:normal;font-variant-caps:normal;font-variant-numeric:normal;font-variant-east-asian:normal;fill:#201010;fill-opacity:1;stroke-width:0.264583"
                   x="48.704308"
                   y="-4.6873388">Filter</tspan></text><path
                 d="m 48.42038,-52.916668 c -0.91427,0 -1.7435,0.552816 -2.09787,1.40331 -0.35437,0.850488 -0.15592,1.821462 0.49612,2.466414 l 12.9416,12.94869 V -27.969 c 0,0.60243 0.24098,1.176507 0.66622,1.601752 l 4.53594,4.535941 c 0.65204,0.65204 1.62301,0.843401 2.4735,0.489029 0.85049,-0.354371 1.39622,-1.176508 1.39622,-2.090784 v -12.665192 l 12.9416,-12.941604 c 0.65205,-0.652038 0.8434,-1.623012 0.48903,-2.4735 -0.35436,-0.850494 -1.1765,-1.40331 -2.09078,-1.40331 z"
                 id="path300"
                 style="fill:#794729;fill-opacity:1;stroke-width:0.0708744" /></g></g><g
             id="g8592"
             transform="translate(-59.56498,83.79815)"><rect
               style="fill:#ebe5e0;fill-opacity:1;fill-rule:evenodd;stroke:none;stroke-width:1.5;stroke-linecap:round;stroke-linejoin:round;paint-order:stroke markers fill;stop-color:#000000"
               id="rect8004-7-6"
               width="66.606857"
               height="59.214828"
               x="-183.52527"
               y="-58.345917"
               ry="5" /><g
               id="g8159"><text
                 xml:space="preserve"
                 style="font-style:normal;font-variant:normal;font-weight:normal;font-stretch:normal;font-size:12.7px;line-height:1.25;font-family:sans-serif;-inkscape-font-specification:'sans-serif, Normal';font-variant-ligatures:normal;font-variant-caps:normal;font-variant-numeric:normal;font-variant-east-asian:normal;word-spacing:0px;fill:#201010;fill-opacity:1;stroke-width:0.264583"
                 x="-173.44377"
                 y="-4.6873388"
                 id="text117"><tspan
                   sodipodi:role="line"
                   id="tspan115"
                   style="font-style:normal;font-variant:normal;font-weight:normal;font-stretch:normal;font-size:12.7px;font-family:sans-serif;-inkscape-font-specification:'sans-serif, Normal';font-variant-ligatures:normal;font-variant-caps:normal;font-variant-numeric:normal;font-variant-east-asian:normal;fill:#201010;fill-opacity:1;stroke-width:0.264583"
                   x="-173.44377"
                   y="-4.6873388">Process</tspan></text><path
                 d="m -145.20941,-39.43123 c 0.64046,-0.173232 1.31241,0.131244 1.60115,0.724452 l 0.97642,1.973862 c 0.54072,0.0735 1.07093,0.220488 1.56965,0.425226 l 1.83738,-1.223166 c 0.5512,-0.367476 1.28091,-0.293982 1.74813,0.173238 l 1.00792,1.007928 c 0.46722,0.46722 0.54072,1.202166 0.17324,1.74813 l -1.22316,1.832124 c 0.0997,0.246732 0.18898,0.50397 0.26248,0.771696 0.0735,0.267732 0.12074,0.53022 0.15749,0.797946 l 1.97911,0.976434 c 0.59321,0.293982 0.89769,0.965934 0.72445,1.601141 l -0.36747,1.375407 c -0.17324,0.635205 -0.76645,1.065677 -1.4279,1.023679 l -2.20485,-0.141739 c -0.33073,0.42522 -0.71396,0.818944 -1.14968,1.15492 l 0.14174,2.199599 c 0.042,0.661455 -0.38847,1.259914 -1.02368,1.427903 l -1.3754,0.367474 c -0.64046,0.173239 -1.30716,-0.131242 -1.60114,-0.724451 l -0.97644,-1.973864 c -0.5407,-0.0735 -1.07092,-0.220485 -1.56964,-0.425221 l -1.83737,1.223166 c -0.55121,0.367476 -1.28091,0.29398 -1.74813,-0.173238 l -1.00793,-1.00793 c -0.46722,-0.467218 -0.54071,-1.196919 -0.17324,-1.748131 l 1.22317,-1.837374 c -0.0998,-0.246732 -0.18899,-0.503965 -0.26248,-0.771698 -0.0735,-0.267733 -0.12075,-0.535465 -0.15749,-0.797941 l -1.97912,-0.976434 c -0.59321,-0.293982 -0.89243,-0.965934 -0.72445,-1.601142 l 0.36747,-1.375404 c 0.17324,-0.635208 0.76646,-1.065678 1.42791,-1.023684 l 2.1996,0.141744 c 0.33072,-0.425226 0.71395,-0.818946 1.14966,-1.154922 l -0.14173,-2.19435 c -0.042,-0.661458 0.38847,-1.259916 1.02368,-1.427904 l 1.3754,-0.367476 z m 1.70614,6.798288 c -1.27567,0 -2.30984,1.034178 -2.30459,2.315088 0,1.275666 1.03417,2.304594 2.30983,2.304594 1.27567,0 2.30985,-1.034178 2.30985,-2.309844 -0.005,-1.28091 -1.03943,-2.309838 -2.31509,-2.309838 z m -11.73295,-20.237364 1.37541,0.36747 c 0.63521,0.173244 1.06568,0.771702 1.02368,1.427904 l -0.14174,2.19435 c 0.43572,0.335976 0.81894,0.724452 1.14967,1.154922 l 2.20484,-0.141744 c 0.65621,-0.042 1.25467,0.388476 1.42791,1.023678 l 0.36747,1.37541 c 0.16799,0.635208 -0.13124,1.30716 -0.72445,1.601142 l -1.97912,0.976428 c -0.0367,0.267732 -0.0892,0.535464 -0.15748,0.797946 -0.0683,0.262482 -0.16274,0.524964 -0.26248,0.771696 l 1.22316,1.83738 c 0.36748,0.551214 0.29398,1.28091 -0.17324,1.74813 l -1.00793,1.007928 c -0.46722,0.46722 -1.19691,0.540714 -1.74813,0.173244 l -1.83737,-1.223166 c -0.49871,0.204732 -1.02893,0.35172 -1.56964,0.42522 l -0.97643,1.973862 c -0.29399,0.593208 -0.96594,0.89244 -1.60115,0.724452 l -1.3754,-0.367476 c -0.64046,-0.173238 -1.06568,-0.771696 -1.02368,-1.427904 l 0.14174,-2.1996 c -0.43572,-0.335976 -0.81895,-0.724446 -1.14967,-1.154916 l -2.20485,0.141738 c -0.6562,0.042 -1.25466,-0.38847 -1.4279,-1.023678 l -0.36748,-1.37541 c -0.16798,-0.635208 0.13125,-1.30716 0.72446,-1.601142 l 1.97911,-0.976434 c 0.0368,-0.267732 0.0892,-0.530214 0.15749,-0.79794 0.0735,-0.267732 0.15748,-0.524964 0.26248,-0.771696 l -1.22317,-1.832124 c -0.36747,-0.551214 -0.29398,-1.280916 0.17324,-1.74813 l 1.00793,-1.007934 c 0.46722,-0.467214 1.19692,-0.540714 1.74813,-0.173238 l 1.83738,1.223166 c 0.49871,-0.204732 1.02893,-0.351726 1.56964,-0.42522 l 0.97643,-1.973862 c 0.29398,-0.593208 0.96068,-0.89244 1.60114,-0.724452 z m -1.70613,6.798282 c -1.27567,0 -2.30984,1.034178 -2.30984,2.309844 0,1.27566 1.03417,2.309838 2.30984,2.309838 1.27566,0 2.30984,-1.034178 2.30984,-2.309838 0,-1.275666 -1.03418,-2.309844 -2.30984,-2.309844 z"
                 id="path309"
                 style="fill:#794729;fill-opacity:1;stroke-width:0.0524964" /></g></g><g
             id="g8571"
             transform="translate(-386.05755,333.12992)"><rect
               style="opacity:1;fill:#ebe5e0;fill-opacity:1;fill-rule:evenodd;stroke:none;stroke-width:1.5;stroke-linecap:round;stroke-linejoin:round;paint-order:stroke markers fill;stop-color:#000000"
               id="rect8004-7"
               width="66.606857"
               height="59.214828"
               x="142.9673"
               y="-58.345917"
               ry="5" /><g
               id="g8144"><text
                 xml:space="preserve"
                 style="font-style:normal;font-variant:normal;font-weight:normal;font-stretch:normal;font-size:12.7px;line-height:1.25;font-family:sans-serif;-inkscape-font-specification:'sans-serif, Normal';font-variant-ligatures:normal;font-variant-caps:normal;font-variant-numeric:normal;font-variant-east-asian:normal;word-spacing:0px;fill:#201010;fill-opacity:1;stroke-width:0.264583"
                 x="145.98125"
                 y="-4.6873388"
                 id="text129"><tspan
                   sodipodi:role="line"
                   id="tspan127"
                   style="font-style:normal;font-variant:normal;font-weight:normal;font-stretch:normal;font-size:12.7px;font-family:sans-serif;-inkscape-font-specification:'sans-serif, Normal';font-variant-ligatures:normal;font-variant-caps:normal;font-variant-numeric:normal;font-variant-east-asian:normal;fill:#201010;fill-opacity:1;stroke-width:0.264583"
                   x="145.98125"
                   y="-4.6873388">Download</tspan></text><path
                 d="m 178.38741,-50.8 c 0,-1.170786 -0.94589,-2.116668 -2.11667,-2.116668 -1.17078,0 -2.11667,0.945888 -2.11667,2.116668 v 13.936932 l -2.73843,-2.738442 c -0.82683,-0.826818 -2.16959,-0.826818 -2.99641,0 -0.82682,0.826824 -0.82682,2.169588 0,2.996406 l 6.35,6.349998 c 0.82682,0.826824 2.16958,0.826824 2.9964,0 l 6.35001,-6.349998 c 0.82682,-0.826818 0.82682,-2.169582 0,-2.996406 -0.82683,-0.826818 -2.16958,-0.826818 -2.99641,0 l -2.73182,2.738442 z m -12.7,19.05 c -2.33495,0 -4.23333,1.898388 -4.23333,4.233334 v 2.116667 c 0,2.334947 1.89838,4.233332 4.23333,4.233332 h 21.16666 c 2.33495,0 4.23333,-1.898385 4.23333,-4.233332 v -2.116667 c 0,-2.334946 -1.89838,-4.233334 -4.23333,-4.233334 h -3.10224 l -3.74385,3.743857 c -2.06375,2.063749 -5.41734,2.063749 -7.4811,0 L 168.78965,-31.75 Z m 20.10833,3.704168 c 0.87974,0 1.5875,0.70776 1.5875,1.5875 0,0.879738 -0.70776,1.587501 -1.5875,1.587501 -0.87974,0 -1.5875,-0.707763 -1.5875,-1.587501 0,-0.87974 0.70776,-1.5875 1.5875,-1.5875 z"
                 id="path318"
                 style="fill:#794729;fill-opacity:1;stroke-width:0.0661458" /></g></g><g
             id="g8599"
             transform="translate(47.583335,0.6875585)"><rect
               style="fill:#ebe5e0;fill-opacity:1;fill-rule:evenodd;stroke:none;stroke-width:1.5;stroke-linecap:round;stroke-linejoin:round;paint-order:stroke markers fill;stop-color:#000000"
               id="rect8004-7-2"
               width="66.606857"
               height="59.214828"
               x="-290.67358"
               y="-58.345917"
               ry="5" /><g
               id="g8009"><text
                 xml:space="preserve"
                 style="font-style:normal;font-variant:normal;font-weight:normal;font-stretch:normal;font-size:12.7px;line-height:1.25;font-family:sans-serif;-inkscape-font-specification:'sans-serif, Normal';font-variant-ligatures:normal;font-variant-caps:normal;font-variant-numeric:normal;font-variant-east-asian:normal;word-spacing:0px;fill:#201010;fill-opacity:1;stroke-width:0.264583"
                 x="-278.89667"
                 y="-4.6873388"
                 id="text113"><tspan
                   sodipodi:role="line"
                   id="tspan111"
                   style="font-style:normal;font-variant:normal;font-weight:normal;font-stretch:normal;font-size:12.7px;font-family:sans-serif;-inkscape-font-specification:'sans-serif, Normal';font-variant-ligatures:normal;font-variant-caps:normal;font-variant-numeric:normal;font-variant-east-asian:normal;fill:#201010;fill-opacity:1;stroke-width:0.264583"
                   x="-278.89667"
                   y="-4.6873388">Upload</tspan></text><path
                 d="m -255.2534,-45.68821 v 13.937658 c 0,1.17084 -0.94593,2.116776 -2.11677,2.116776 -1.17084,0 -2.11678,-0.945936 -2.11678,-2.116776 V -45.68821 l -2.73858,2.738586 c -0.82687,0.826866 -2.16969,0.826866 -2.99656,0 -0.82687,-0.826872 -0.82687,-2.169702 0,-2.996562 l 6.35033,-6.350328 c 0.82686,-0.826872 2.16969,-0.826872 2.99657,0 l 6.35033,6.350328 c 0.82687,0.82686 0.82687,2.16969 0,2.996562 -0.82687,0.826866 -2.1697,0.826866 -2.99657,0 z m -2.11677,19.229602 c 2.9238,0 5.29194,-2.368144 5.29194,-5.291944 h 5.29195 c 2.33507,0 4.23355,1.898484 4.23355,4.233554 v 2.116778 c 0,2.335069 -1.89848,4.233553 -4.23355,4.233553 h -21.16778 c -2.33507,0 -4.23355,-1.898484 -4.23355,-4.233553 v -2.116778 c 0,-2.33507 1.89848,-4.233554 4.23355,-4.233554 h 5.29195 c 0,2.9238 2.36814,5.291944 5.29194,5.291944 z m 9.5255,1.587583 c 0.87978,0 1.58758,-0.7078 1.58758,-1.587583 0,-0.879786 -0.7078,-1.587582 -1.58758,-1.587582 -0.87978,0 -1.58759,0.707796 -1.58759,1.587582 0,0.879783 0.70781,1.587583 1.58759,1.587583 z"
                 id="path327"
                 style="fill:#794729;fill-opacity:1;stroke-width:0.0661488" /></g></g><path
             style="fill:#000000;fill-opacity:0;stroke:#7c6f42;stroke-width:1.5;stroke-linecap:round;stroke-linejoin:miter;stroke-opacity:1;marker-end:url(#Arrow3_F-000000_S-7c6f42-3)"
             d="M -209.78682,5.2240214 V 21.099021"
             id="path504-7"
             sodipodi:nodetypes="cc" /><path
             style="fill:#000000;fill-opacity:0;stroke:#7c6f42;stroke-width:1.5;stroke-linecap:round;stroke-linejoin:miter;stroke-opacity:1;marker-end:url(#Arrow3_F-000000_S-7c6f42-3-5)"
             d="M -209.78682,88.334613 V 104.20961"
             id="path504-7-5"
             sodipodi:nodetypes="cc" /><path
             style="fill:#000000;fill-opacity:0;stroke:#7c6f42;stroke-width:1.5;stroke-linecap:round;stroke-linejoin:miter;stroke-opacity:1;marker-end:url(#Arrow3_F-000000_S-7c6f42-3-6)"
             d="m -209.78682,171.4452 v 15.875"
             id="path504-7-9"
             sodipodi:nodetypes="cc" /><path
             style="fill:#000000;fill-opacity:0;stroke:#7c6f42;stroke-width:1.5;stroke-linecap:round;stroke-linejoin:miter;stroke-opacity:1;marker-end:url(#Arrow3_F-000000_S-7c6f42-3-1)"
             d="m -209.78682,254.55579 v 15.875"
             id="path504-7-0"
             sodipodi:nodetypes="cc" /></g></g></g></g></svg>
